####
#
# OBJ File Generated by Meshlab
#
####
# Object bin2_SK-HL1-BL.obj
#
# Vertices: 90
# Faces: 38
#
####
vn 1.976557 0.000000 0.000000
v -43.500000 40.000000 -100.500000 0.000000 0.498039 1.000000
vn -1.976501 0.000000 0.000000
v 43.500000 39.996517 -100.500122 0.000000 0.498039 1.000000
vn -1.570796 0.000000 0.000000
v 43.500000 74.996513 90.499878 0.000000 0.498039 1.000000
vn 0.000000 1.562797 0.000000
v -56.000000 75.000000 100.599998 0.000000 0.498039 1.000000
vn -1.742424 0.000000 0.000000
v -56.000000 0.000000 -71.500000 0.000000 0.498039 1.000000
vn -0.455680 0.000000 0.000000
v -56.000000 0.000000 -71.500000 0.000000 0.498039 1.000000
vn -0.674321 0.000000 0.000000
v -56.000000 0.000000 -71.500000 0.000000 0.498039 1.000000
vn 0.000000 -1.514236 -0.417720
v -56.000000 0.000000 -71.500000 0.000000 0.498039 1.000000
vn 0.000000 -1.570796 0.000000
v -56.000000 0.000000 -71.500000 0.000000 0.498039 1.000000
vn 0.000000 0.000000 1.570796
v -56.000000 0.000000 100.500000 0.000000 0.498039 1.000000
vn -1.185639 0.000000 0.000000
v -56.000000 0.000000 100.500000 0.000000 0.498039 1.000000
vn -0.385157 0.000000 0.000000
v -56.000000 0.000000 100.500000 0.000000 0.498039 1.000000
vn 0.000000 -1.570796 0.000000
v -56.000000 0.000000 100.500000 0.000000 0.498039 1.000000
vn -1.839964 0.000000 0.000000
v -56.000000 8.000000 -100.500000 0.000000 0.498039 1.000000
vn 0.000000 0.000000 -1.570796
v -56.000000 8.000000 -100.500000 0.000000 0.498039 1.000000
vn 0.000000 -1.514236 -0.417720
v -56.000000 8.000000 -100.500000 0.000000 0.498039 1.000000
vn 0.000000 0.000000 -1.570796
v -56.000000 40.000000 -100.500000 0.000000 0.498039 1.000000
vn -0.627308 0.000000 0.000000
v -56.000000 40.000000 -100.500000 0.000000 0.498039 1.000000
vn -2.085506 0.000000 0.000000
v -56.000000 40.000000 -100.500000 0.000000 0.498039 1.000000
vn 0.037925 0.635895 -1.420648
v -56.000000 40.000000 -100.500000 0.000000 0.498039 1.000000
vn 0.000000 1.570796 0.000000
v -56.000000 75.000000 -84.500000 0.000000 0.498039 1.000000
vn 0.000000 0.653074 -1.428599
v -56.000000 75.000000 -84.500000 0.000000 0.498039 1.000000
vn -0.600406 0.000000 0.000000
v -56.000000 75.000000 -84.500000 0.000000 0.498039 1.000000
vn -1.014011 0.000000 0.000000
v -56.000000 75.000000 -84.500000 0.000000 0.498039 1.000000
vn -0.385157 0.000000 0.000000
v -56.000000 75.000000 -84.500000 0.000000 0.498039 1.000000
vn -1.570796 0.000000 0.000000
v -56.000000 75.000000 100.500000 0.000000 0.498039 1.000000
vn 0.000000 0.000000 1.570796
v -56.000000 75.000000 100.500000 0.000000 0.498039 1.000000
vn 0.544609 0.000000 0.000000
v -43.500000 8.000000 -71.500000 0.000000 0.498039 1.000000
vn 1.762445 0.000000 0.000000
v -43.500000 8.000000 -71.500000 0.000000 0.498039 1.000000
vn 0.000000 1.570796 0.000000
v -43.500000 8.000000 -71.500000 0.000000 0.498039 1.000000
vn 0.003975 1.048872 1.169299
v -43.500000 8.000000 -71.500000 0.000000 0.498039 1.000000
vn 0.365641 0.000000 0.000000
v -43.500000 8.000000 90.500000 0.000000 0.498039 1.000000
vn 1.205155 0.000000 0.000000
v -43.500000 8.000000 90.500000 0.000000 0.498039 1.000000
vn 0.000000 0.000000 -1.570796
v -43.500000 8.000000 90.500000 0.000000 0.498039 1.000000
vn 0.000000 1.570796 0.000000
v -43.500000 8.000000 90.500000 0.000000 0.498039 1.000000
vn 0.048341 0.644102 -1.446739
v -43.500000 40.000000 -100.082329 0.000000 0.498039 1.000000
vn 0.005636 1.048521 1.173895
v -43.500000 40.000000 -100.082329 0.000000 0.498039 1.000000
vn 0.365641 0.000000 0.000000
v -43.500000 75.000000 -84.500000 0.000000 0.498039 1.000000
vn 1.013507 0.000000 0.000000
v -43.500000 75.000000 -84.500000 0.000000 0.498039 1.000000
vn 0.620427 0.000000 0.000000
v -43.500000 75.000000 -84.500000 0.000000 0.498039 1.000000
vn 0.009587 0.650238 -1.429885
v -43.500000 75.000000 -84.500000 0.000000 0.498039 1.000000
vn 0.000000 1.570796 0.000000
v -43.500000 75.000000 -84.500000 0.000000 0.498039 1.000000
vn 0.000000 1.570797 0.000000
v -43.500000 75.000000 90.500000 0.000000 0.498039 1.000000
vn 0.000000 0.000000 -1.570796
v -43.500000 75.000000 90.500000 0.000000 0.498039 1.000000
vn 1.570796 0.000000 0.000000
v -43.500000 75.000000 90.500000 0.000000 0.498039 1.000000
vn 0.000000 1.578796 0.000000
v -43.500000 75.000000 100.500000 0.000000 0.498039 1.000000
vn 0.000000 1.570796 0.000000
v -43.500000 75.000000 100.500000 0.000000 0.498039 1.000000
vn -1.762456 0.000000 0.000000
v 43.500000 8.000000 -71.500000 0.000000 0.498039 1.000000
vn -0.544654 0.000000 0.000000
v 43.500000 8.000000 -71.500000 0.000000 0.498039 1.000000
vn 0.000000 1.054820 1.163940
v 43.500000 8.000000 -71.500000 0.000000 0.498039 1.000000
vn 0.000000 1.570796 0.000000
v 43.500000 8.000000 -71.500000 0.000000 0.498039 1.000000
vn -1.205172 0.000000 0.000000
v 43.500000 8.000000 90.499878 0.000000 0.498039 1.000000
vn -0.365624 0.000000 0.000000
v 43.500000 8.000000 90.499878 0.000000 0.498039 1.000000
vn 0.000000 1.570796 0.000000
v 43.500000 8.000000 90.500000 0.000000 0.498039 1.000000
vn 0.000000 0.000000 -1.570796
v 43.500000 8.000000 90.500000 0.000000 0.498039 1.000000
vn 0.001638 1.050209 1.163766
v 43.500000 40.000000 -100.500000 0.000000 0.498039 1.000000
vn 0.000000 0.653074 -1.428600
v 43.500000 40.000000 -100.500000 0.000000 0.498039 1.000000
vn -0.620438 0.000000 0.000000
v 43.500000 74.996513 -84.500122 0.000000 0.498039 1.000000
vn -1.013512 0.000000 0.000000
v 43.500000 74.996513 -84.500122 0.000000 0.498039 1.000000
vn -0.365624 0.000000 0.000000
v 43.500000 74.996513 -84.500122 0.000000 0.498039 1.000000
vn 0.000000 1.570796 0.000000
v 43.500000 75.000000 -84.500000 0.000000 0.498039 1.000000
vn 0.000000 0.653074 -1.428599
v 43.500000 75.000000 -84.500000 0.000000 0.498039 1.000000
vn 0.000000 0.000000 -1.570796
v 43.500000 75.000000 90.500000 0.000000 0.498039 1.000000
vn 0.000000 1.570796 0.000000
v 43.500000 75.000000 90.500000 0.000000 0.498039 1.000000
vn 0.000000 1.570797 0.000000
v 43.500000 75.000000 100.500000 0.000000 0.498039 1.000000
vn 0.000000 1.570796 0.000000
v 43.500000 75.000000 100.500000 0.000000 0.498039 1.000000
vn 0.674321 0.000000 0.000000
v 56.000000 0.000000 -71.500000 0.000000 0.498039 1.000000
vn 0.455680 0.000000 0.000000
v 56.000000 0.000000 -71.500000 0.000000 0.498039 1.000000
vn 1.742424 0.000000 0.000000
v 56.000000 0.000000 -71.500000 0.000000 0.498039 1.000000
vn 0.000000 -1.570796 0.000000
v 56.000000 0.000000 -71.500000 0.000000 0.498039 1.000000
vn 0.000000 -1.514236 -0.417720
v 56.000000 0.000000 -71.500000 0.000000 0.498039 1.000000
vn 0.000000 -1.570796 0.000000
v 56.000000 0.000000 100.500000 0.000000 0.498039 1.000000
vn 0.385157 0.000000 0.000000
v 56.000000 0.000000 100.500000 0.000000 0.498039 1.000000
vn 1.185639 0.000000 0.000000
v 56.000000 0.000000 100.500000 0.000000 0.498039 1.000000
vn 0.000000 0.000000 1.570796
v 56.000000 0.000000 100.500000 0.000000 0.498039 1.000000
vn 0.000000 0.000000 -1.570796
v 56.000000 8.000000 -100.500000 0.000000 0.498039 1.000000
vn 1.839964 0.000000 0.000000
v 56.000000 8.000000 -100.500000 0.000000 0.498039 1.000000
vn 0.000000 -1.514236 -0.417720
v 56.000000 8.000000 -100.500000 0.000000 0.498039 1.000000
vn 0.000000 0.653074 -1.428599
v 56.000000 40.000000 -100.500000 0.000000 0.498039 1.000000
vn 2.085506 0.000000 0.000000
v 56.000000 40.000000 -100.500000 0.000000 0.498039 1.000000
vn 0.627308 0.000000 0.000000
v 56.000000 40.000000 -100.500000 0.000000 0.498039 1.000000
vn 0.000000 0.000000 -1.570796
v 56.000000 40.000000 -100.500000 0.000000 0.498039 1.000000
vn 0.000000 1.570796 0.000000
v 56.000000 75.000000 -84.500000 0.000000 0.498039 1.000000
vn 0.385157 0.000000 0.000000
v 56.000000 75.000000 -84.500000 0.000000 0.498039 1.000000
vn 1.014011 0.000000 0.000000
v 56.000000 75.000000 -84.500000 0.000000 0.498039 1.000000
vn 0.600406 0.000000 0.000000
v 56.000000 75.000000 -84.500000 0.000000 0.498039 1.000000
vn 0.000000 0.653074 -1.428600
v 56.000000 75.000000 -84.500000 0.000000 0.498039 1.000000
vn 0.000000 0.000000 1.570796
v 56.000000 75.000000 100.500000 0.000000 0.498039 1.000000
vn 1.570796 0.000000 0.000000
v 56.000000 75.000000 100.500000 0.000000 0.498039 1.000000
vn 0.000000 1.570796 0.000000
v 56.000000 75.000000 100.500000 0.000000 0.498039 1.000000
# 90 vertices, 0 vertices normals

f 14//14 7//7 18//18
f 23//23 19//19 6//6
f 5//5 12//12 24//24
f 11//11 26//26 25//25
f 67//67 77//77 81//81
f 80//80 86//86 68//68
f 73//73 69//69 85//85
f 89//89 74//74 84//84
f 1//1 40//40 28//28
f 45//45 33//33 38//38
f 39//39 32//32 29//29
f 58//58 2//2 49//49
f 52//52 3//3 60//60
f 53//53 59//59 48//48
f 82//82 76//76 15//15
f 82//82 15//15 17//17
f 71//71 8//8 16//16
f 71//71 16//16 78//78
f 55//55 34//34 44//44
f 55//55 44//44 63//63
f 13//13 9//9 70//70
f 13//13 70//70 72//72
f 54//54 51//51 30//30
f 54//54 30//30 35//35
f 56//56 37//37 31//31
f 56//56 31//31 50//50
f 83//83 61//61 66//66
f 83//83 66//66 90//90
f 87//87 79//79 57//57
f 87//87 57//57 62//62
f 46//46 42//42 21//21
f 46//46 21//21 4//4
f 41//41 36//36 20//20
f 41//41 20//20 22//22
f 65//65 64//64 43//43
f 65//65 43//43 47//47
f 75//75 88//88 27//27
f 75//75 27//27 10//10
# 38 faces, 0 coords texture

# End of File