####
#
# OBJ File Generated by Meshlab
#
####
# Object bin3_T3-YG.obj
#
# Vertices: 98
# Faces: 46
#
####
vn 0.000000 1.564914 0.000000
v 96.000000 90.000000 142.600006 1.000000 0.874510 0.498039
vn -1.637365 0.000000 0.000000
v -96.000000 0.000000 -86.500000 1.000000 0.874510 0.498039
vn -0.795602 0.000000 0.000000
v -96.000000 0.000000 -86.500000 1.000000 0.874510 0.498039
vn -0.446913 0.000000 0.000000
v -96.000000 0.000000 -86.500000 1.000000 0.874510 0.498039
vn 0.000000 -1.517308 -0.406422
v -96.000000 0.000000 -86.500000 1.000000 0.874510 0.498039
vn 0.000000 -1.570796 0.000000
v -96.000000 0.000000 -86.500000 1.000000 0.874510 0.498039
vn 0.000000 0.000000 1.570796
v -96.000000 0.000000 142.500000 1.000000 0.874510 0.498039
vn -1.570796 0.000000 0.000000
v -96.000000 0.000000 142.500000 1.000000 0.874510 0.498039
vn 0.000000 -1.570796 0.000000
v -96.000000 0.000000 142.500000 1.000000 0.874510 0.498039
vn -1.832510 0.000000 0.000000
v -96.000000 15.000000 -142.500000 1.000000 0.874510 0.498039
vn 0.000000 0.000000 -1.570796
v -96.000000 15.000000 -142.500000 1.000000 0.874510 0.498039
vn 0.000000 -1.517308 -0.406422
v -96.000000 15.000000 -142.500000 1.000000 0.874510 0.498039
vn 0.000000 0.000000 -1.570796
v -96.000000 48.000000 -142.500000 1.000000 0.874510 0.498039
vn -0.862170 0.000000 0.000000
v -96.000000 48.000000 -142.500000 1.000000 0.874510 0.498039
vn -1.407286 0.000000 0.000000
v -96.000000 48.000000 -142.500000 1.000000 0.874510 0.498039
vn 0.000000 1.202766 -1.010324
v -96.000000 48.000000 -142.500000 1.000000 0.874510 0.498039
vn 0.000000 1.570796 0.000000
v -96.000000 90.000000 -92.500000 1.000000 0.874510 0.498039
vn 0.000000 1.202766 -1.010324
v -96.000000 90.000000 -92.500000 1.000000 0.874510 0.498039
vn -0.938705 0.000000 0.000000
v -96.000000 90.000000 -92.500000 1.000000 0.874510 0.498039
vn -1.504228 0.000000 0.000000
v -96.000000 90.000000 -92.500000 1.000000 0.874510 0.498039
vn 0.000000 1.570796 0.000000
v -96.000000 90.000000 142.500000 1.000000 0.874510 0.498039
vn -1.570796 0.000000 0.000000
v -96.000000 90.000000 142.500000 1.000000 0.874510 0.498039
vn 0.000000 0.000000 1.570796
v -96.000000 90.000000 142.500000 1.000000 0.874510 0.498039
vn 0.000000 0.000000 1.570796
v -79.000000 0.000000 142.500000 1.000000 0.874510 0.498039
vn 0.000000 0.000000 1.570796
v -79.000000 0.000000 142.500000 1.000000 0.874510 0.498039
vn 0.000000 1.224450 0.983933
v -79.000000 3.000000 -86.500000 1.000000 0.874510 0.498039
vn 0.825025 0.000000 0.000000
v -79.000000 3.000000 -86.500000 1.000000 0.874510 0.498039
vn 1.639653 0.000000 0.000000
v -79.000000 3.000000 -86.500000 1.000000 0.874510 0.498039
vn 0.000000 1.570796 0.000000
v -79.000000 3.000000 -86.500000 1.000000 0.874510 0.498039
vn 0.000000 0.000000 -1.570796
v -79.000000 3.000000 132.500000 1.000000 0.874510 0.498039
vn 0.000000 1.570796 0.000000
v -79.000000 3.000000 132.500000 1.000000 0.874510 0.498039
vn 1.570796 0.000000 0.000000
v -79.000000 3.000000 132.500000 1.000000 0.874510 0.498039
vn 0.000000 1.202766 -1.010324
v -79.000000 48.000000 -142.500000 1.000000 0.874510 0.498039
vn 1.375575 0.000000 0.000000
v -79.000000 48.000000 -142.500000 1.000000 0.874510 0.498039
vn 0.000000 1.224450 0.983933
v -79.000000 48.000000 -142.500000 1.000000 0.874510 0.498039
vn 1.570796 0.000000 0.000000
v -79.000000 85.000000 132.500000 1.000000 0.874510 0.498039
vn 0.000000 1.570797 0.000000
v -79.000000 85.000000 132.500000 1.000000 0.874510 0.498039
vn 0.000000 0.000000 -1.570796
v -79.000000 85.000000 132.500000 1.000000 0.874510 0.498039
vn 0.000000 0.000000 1.570796
v -79.000000 85.000000 142.500000 1.000000 0.874510 0.498039
vn 0.000000 1.570796 0.000000
v -79.000000 85.000000 142.500000 1.000000 0.874510 0.498039
vn 1.570796 0.000000 0.000000
v -79.000000 85.000000 142.500000 1.000000 0.874510 0.498039
vn 1.501940 0.000000 0.000000
v -79.000000 90.000000 -92.500000 1.000000 0.874510 0.498039
vn 0.940993 0.000000 0.000000
v -79.000000 90.000000 -92.500000 1.000000 0.874510 0.498039
vn 0.000000 1.202766 -1.010324
v -79.000000 90.000000 -92.500000 1.000000 0.874510 0.498039
vn 0.000000 1.570796 0.000000
v -79.000000 90.000000 -92.500000 1.000000 0.874510 0.498039
vn 1.570796 0.000000 0.000000
v -79.000000 90.000000 132.500000 1.000000 0.874510 0.498039
vn 1.570796 0.000000 0.000000
v -79.000000 90.000000 132.500000 1.000000 0.874510 0.498039
vn 0.000000 1.570796 0.000000
v -79.000000 90.000000 142.500000 1.000000 0.874510 0.498039
vn 0.000000 0.000000 1.570796
v -79.000000 90.000000 142.500000 1.000000 0.874510 0.498039
vn 1.570796 0.000000 0.000000
v -79.000000 90.000000 142.500000 1.000000 0.874510 0.498039
vn 0.000000 0.000000 1.570796
v 79.000000 0.000000 142.500000 1.000000 0.874510 0.498039
vn 0.000000 0.000000 1.570796
v 79.000000 0.000000 142.500000 1.000000 0.874510 0.498039
vn -1.639653 0.000000 0.000000
v 79.000000 3.000000 -86.500000 1.000000 0.874510 0.498039
vn -0.825025 0.000000 0.000000
v 79.000000 3.000000 -86.500000 1.000000 0.874510 0.498039
vn 0.000000 1.224450 0.983933
v 79.000000 3.000000 -86.500000 1.000000 0.874510 0.498039
vn 0.000000 1.570796 0.000000
v 79.000000 3.000000 -86.500000 1.000000 0.874510 0.498039
vn -1.570796 0.000000 0.000000
v 79.000000 3.000000 132.500000 1.000000 0.874510 0.498039
vn 0.000000 1.570796 0.000000
v 79.000000 3.000000 132.500000 1.000000 0.874510 0.498039
vn 0.000000 0.000000 -1.570796
v 79.000000 3.000000 132.500000 1.000000 0.874510 0.498039
vn 0.000000 1.224450 0.983933
v 79.000000 48.000000 -142.500000 1.000000 0.874510 0.498039
vn -1.375575 0.000000 0.000000
v 79.000000 48.000000 -142.500000 1.000000 0.874510 0.498039
vn 0.000000 1.202766 -1.010324
v 79.000000 48.000000 -142.500000 1.000000 0.874510 0.498039
vn 0.000000 0.000000 -1.570796
v 79.000000 85.000000 132.500000 1.000000 0.874510 0.498039
vn 0.000000 1.570796 0.000000
v 79.000000 85.000000 132.500000 1.000000 0.874510 0.498039
vn -1.570796 0.000000 0.000000
v 79.000000 85.000000 132.500000 1.000000 0.874510 0.498039
vn -1.570796 0.000000 0.000000
v 79.000000 85.000000 142.500000 1.000000 0.874510 0.498039
vn 0.000000 1.570797 0.000000
v 79.000000 85.000000 142.500000 1.000000 0.874510 0.498039
vn 0.000000 0.000000 1.570796
v 79.000000 85.000000 142.500000 1.000000 0.874510 0.498039
vn 0.000000 1.570796 0.000000
v 79.000000 90.000000 -92.500000 1.000000 0.874510 0.498039
vn 0.000000 1.202766 -1.010324
v 79.000000 90.000000 -92.500000 1.000000 0.874510 0.498039
vn -0.940993 0.000000 0.000000
v 79.000000 90.000000 -92.500000 1.000000 0.874510 0.498039
vn -1.501940 0.000000 0.000000
v 79.000000 90.000000 -92.500000 1.000000 0.874510 0.498039
vn -1.570796 0.000000 0.000000
v 79.000000 90.000000 132.500000 1.000000 0.874510 0.498039
vn -1.570796 0.000000 0.000000
v 79.000000 90.000000 132.500000 1.000000 0.874510 0.498039
vn 0.000000 0.000000 1.570796
v 79.000000 90.000000 142.500000 1.000000 0.874510 0.498039
vn -1.570796 0.000000 0.000000
v 79.000000 90.000000 142.500000 1.000000 0.874510 0.498039
vn 0.000000 1.576679 0.000000
v 79.000000 90.000000 142.500000 1.000000 0.874510 0.498039
vn 0.446913 0.000000 0.000000
v 96.000000 0.000000 -86.500000 1.000000 0.874510 0.498039
vn 0.795602 0.000000 0.000000
v 96.000000 0.000000 -86.500000 1.000000 0.874510 0.498039
vn 1.637365 0.000000 0.000000
v 96.000000 0.000000 -86.500000 1.000000 0.874510 0.498039
vn 0.000000 -1.570796 0.000000
v 96.000000 0.000000 -86.500000 1.000000 0.874510 0.498039
vn 0.000000 -1.517308 -0.406422
v 96.000000 0.000000 -86.500000 1.000000 0.874510 0.498039
vn 0.000000 -1.570796 0.000000
v 96.000000 0.000000 142.500000 1.000000 0.874510 0.498039
vn 1.570796 0.000000 0.000000
v 96.000000 0.000000 142.500000 1.000000 0.874510 0.498039
vn 0.000000 0.000000 1.570796
v 96.000000 0.000000 142.500000 1.000000 0.874510 0.498039
vn 0.000000 0.000000 -1.570796
v 96.000000 15.000000 -142.500000 1.000000 0.874510 0.498039
vn 1.832510 0.000000 0.000000
v 96.000000 15.000000 -142.500000 1.000000 0.874510 0.498039
vn 0.000000 -1.517308 -0.406422
v 96.000000 15.000000 -142.500000 1.000000 0.874510 0.498039
vn 0.000000 1.202766 -1.010324
v 96.000000 48.000000 -142.500000 1.000000 0.874510 0.498039
vn 1.407286 0.000000 0.000000
v 96.000000 48.000000 -142.500000 1.000000 0.874510 0.498039
vn 0.862170 0.000000 0.000000
v 96.000000 48.000000 -142.500000 1.000000 0.874510 0.498039
vn 0.000000 0.000000 -1.570796
v 96.000000 48.000000 -142.500000 1.000000 0.874510 0.498039
vn 1.504228 0.000000 0.000000
v 96.000000 90.000000 -92.500000 1.000000 0.874510 0.498039
vn 0.938705 0.000000 0.000000
v 96.000000 90.000000 -92.500000 1.000000 0.874510 0.498039
vn 0.000000 1.202766 -1.010324
v 96.000000 90.000000 -92.500000 1.000000 0.874510 0.498039
vn 0.000000 1.570796 0.000000
v 96.000000 90.000000 -92.500000 1.000000 0.874510 0.498039
vn 0.000000 0.000000 1.570796
v 96.000000 90.000000 142.500000 1.000000 0.874510 0.498039
vn 1.570796 0.000000 0.000000
v 96.000000 90.000000 142.500000 1.000000 0.874510 0.498039
# 98 vertices, 0 vertices normals

f 8//8 22//22 20//20
f 8//8 20//20 2//2
f 14//14 10//10 4//4
f 19//19 15//15 3//3
f 93//93 98//98 84//84
f 93//93 84//84 80//80
f 87//87 91//91 78//78
f 90//90 94//94 79//79
f 47//47 50//50 41//41
f 47//47 41//41 36//36
f 42//42 46//46 32//32
f 42//42 32//32 28//28
f 34//34 43//43 27//27
f 74//74 65//65 66//66
f 74//74 66//66 76//76
f 57//57 73//73 72//72
f 57//57 72//72 53//53
f 71//71 61//61 54//54
f 63//63 59//59 30//30
f 63//63 30//30 38//38
f 11//11 13//13 92//92
f 11//11 92//92 86//86
f 82//82 5//5 12//12
f 82//82 12//12 88//88
f 45//45 17//17 21//21
f 45//45 21//21 48//48
f 96//96 69//69 77//77
f 96//96 77//77 1//1
f 95//95 89//89 62//62
f 95//95 62//62 70//70
f 44//44 33//33 16//16
f 44//44 16//16 18//18
f 26//26 55//55 60//60
f 26//26 60//60 35//35
f 31//31 58//58 56//56
f 31//31 56//56 29//29
f 67//67 64//64 37//37
f 67//67 37//37 40//40
f 81//81 83//83 9//9
f 81//81 9//9 6//6
f 23//23 7//7 24//24
f 23//23 24//24 49//49
f 39//39 25//25 51//51
f 39//39 51//51 68//68
f 97//97 75//75 52//52
f 97//97 52//52 85//85
# 46 faces, 0 coords texture

# End of File