####
#
# OBJ File Generated by Meshlab
#
####
# Object tray_PZ-0006-B.obj
#
# Vertices: 70
# Faces: 30
#
####
vn -1.570797 0.000000 0.000000
v -150.000000 0.000000 -105.000000 0.000000 0.498039 1.000000
vn 0.000000 0.000000 -1.570796
v -150.000000 0.000000 -105.000000 0.000000 0.498039 1.000000
vn 0.000000 -1.570796 0.000000
v -150.000000 0.000000 -105.000000 0.000000 0.498039 1.000000
vn 0.000000 0.000000 1.570796
v -150.000000 0.000000 105.000000 0.000000 0.498039 1.000000
vn -1.570796 0.000000 0.000000
v -150.000000 0.000000 105.000000 0.000000 0.498039 1.000000
vn 0.000000 -1.570796 0.000000
v -150.000000 0.000000 105.000000 0.000000 0.498039 1.000000
vn -1.570796 0.000000 0.000000
v -150.000000 22.500000 -105.000000 0.000000 0.498039 1.000000
vn 0.000000 0.785397 0.000000
v -150.000000 22.500000 -105.000000 0.000000 0.498039 1.000000
vn 0.000000 0.750930 0.000000
v -150.000000 22.500000 -105.000000 0.000000 0.498039 1.000000
vn 0.000000 0.034470 0.000000
v -150.000000 22.500000 -105.000000 0.000000 0.498039 1.000000
vn 0.000000 0.000000 -1.570796
v -150.000000 22.500000 -105.000000 0.000000 0.498039 1.000000
vn 0.000000 0.000000 1.570796
v -150.000000 22.500000 105.000000 0.000000 0.498039 1.000000
vn 0.000000 0.785411 0.000000
v -150.000000 22.500000 105.000000 0.000000 0.498039 1.000000
vn 0.000000 0.735427 0.000000
v -150.000000 22.500000 105.000000 0.000000 0.498039 1.000000
vn 0.000000 0.049957 0.000000
v -150.000000 22.500000 105.000000 0.000000 0.498039 1.000000
vn -1.570797 0.000000 0.000000
v -150.000000 22.500000 105.000000 0.000000 0.498039 1.000000
vn 0.000000 0.000000 0.053519
v -140.000137 7.500097 -95.000122 0.000000 0.498039 1.000000
vn 0.000000 0.000000 1.517276
v -140.000137 7.500097 -95.000122 0.000000 0.498039 1.000000
vn 1.570796 0.000000 0.000000
v -140.000137 7.500097 -95.000122 0.000000 0.498039 1.000000
vn 0.000000 1.570796 0.000000
v -140.000137 7.500097 -95.000122 0.000000 0.498039 1.000000
vn 0.078783 0.000000 0.000000
v -140.000137 7.500097 94.999878 0.000000 0.498039 1.000000
vn 1.492013 0.000000 0.000000
v -140.000137 7.500097 94.999878 0.000000 0.498039 1.000000
vn 0.000000 0.000000 -1.570796
v -140.000137 7.500097 94.999878 0.000000 0.498039 1.000000
vn 0.000000 1.570796 0.000000
v -140.000137 7.500097 94.999878 0.000000 0.498039 1.000000
vn 0.078783 0.000000 0.000000
v -140.000137 22.500000 -95.000122 0.000000 0.498039 1.000000
vn 1.492013 0.000000 0.000000
v -140.000137 22.500000 -95.000122 0.000000 0.498039 1.000000
vn 0.000000 0.000000 1.570796
v -140.000137 22.500000 -95.000122 0.000000 0.498039 1.000000
vn 0.000000 2.356194 0.000000
v -140.000137 22.500000 -95.000122 0.000000 0.498039 1.000000
vn 0.000000 2.306238 0.000000
v -140.000137 22.500000 -95.000122 0.000000 0.498039 1.000000
vn 0.000000 0.049957 0.000000
v -140.000137 22.500000 -95.000122 0.000000 0.498039 1.000000
vn 0.000000 0.000000 -1.570796
v -140.000137 22.500000 94.999878 0.000000 0.498039 1.000000
vn 1.570796 0.000000 0.000000
v -140.000137 22.500000 94.999878 0.000000 0.498039 1.000000
vn 0.000000 2.356207 0.000000
v -140.000137 22.500000 94.999878 0.000000 0.498039 1.000000
vn 0.000000 2.356181 0.000000
v -140.000137 22.500000 94.999878 0.000000 0.498039 1.000000
vn 0.000000 0.000000 -0.054350
v -135.714111 22.500000 94.999878 0.000000 0.498039 1.000000
vn 0.000000 0.000000 -3.087242
v -135.714111 22.500000 94.999878 0.000000 0.498039 1.000000
vn 0.000000 3.106606 0.000000
v -135.714111 22.500000 94.999878 0.000000 0.498039 1.000000
vn 0.000000 0.034986 0.000000
v -135.714111 22.500000 94.999878 0.000000 0.498039 1.000000
vn -1.570796 0.000000 0.000000
v 139.999863 7.500097 -95.000122 0.000000 0.498039 1.000000
vn 0.000000 0.000000 1.570796
v 139.999863 7.500097 -95.000122 0.000000 0.498039 1.000000
vn 0.000000 1.570796 0.000000
v 139.999863 7.500097 -95.000122 0.000000 0.498039 1.000000
vn 0.000000 0.000000 -0.054350
v 139.999863 7.500097 94.999878 0.000000 0.498039 1.000000
vn 0.000000 0.000000 -1.516446
v 139.999863 7.500097 94.999878 0.000000 0.498039 1.000000
vn -1.570796 0.000000 0.000000
v 139.999863 7.500097 94.999878 0.000000 0.498039 1.000000
vn 0.000000 1.570796 0.000000
v 139.999863 7.500097 94.999878 0.000000 0.498039 1.000000
vn 0.000000 0.000000 0.053519
v 139.999863 22.500000 -95.000122 0.000000 0.498039 1.000000
vn 0.000000 0.000000 1.517276
v 139.999863 22.500000 -95.000122 0.000000 0.498039 1.000000
vn -1.570796 0.000000 0.000000
v 139.999863 22.500000 -95.000122 0.000000 0.498039 1.000000
vn 0.000000 4.677920 0.000000
v 139.999863 22.500000 -95.000122 0.000000 0.498039 1.000000
vn 0.000000 0.034470 0.000000
v 139.999863 22.500000 -95.000122 0.000000 0.498039 1.000000
vn -1.570796 0.000000 0.000000
v 139.999863 22.500000 94.999878 0.000000 0.498039 1.000000
vn 0.000000 0.000000 -1.570796
v 139.999863 22.500000 94.999878 0.000000 0.498039 1.000000
vn 0.000000 2.356195 0.000000
v 139.999863 22.500000 94.999878 0.000000 0.498039 1.000000
vn 0.000000 2.306235 0.000000
v 139.999863 22.500000 94.999878 0.000000 0.498039 1.000000
vn 0.000000 0.049960 0.000000
v 139.999863 22.500000 94.999878 0.000000 0.498039 1.000000
vn 0.000000 0.000000 -1.570796
v 150.000000 0.000000 -105.000000 0.000000 0.498039 1.000000
vn 1.570797 0.000000 0.000000
v 150.000000 0.000000 -105.000000 0.000000 0.498039 1.000000
vn 0.000000 -1.570796 0.000000
v 150.000000 0.000000 -105.000000 0.000000 0.498039 1.000000
vn 1.570796 0.000000 0.000000
v 150.000000 0.000000 105.000000 0.000000 0.498039 1.000000
vn 0.000000 0.000000 1.570796
v 150.000000 0.000000 105.000000 0.000000 0.498039 1.000000
vn 0.000000 -1.570796 0.000000
v 150.000000 0.000000 105.000000 0.000000 0.498039 1.000000
vn 0.000000 1.520837 0.000000
v 150.000000 22.500000 -105.000000 0.000000 0.498039 1.000000
vn 0.000000 0.049960 0.000000
v 150.000000 22.500000 -105.000000 0.000000 0.498039 1.000000
vn 1.570796 0.000000 0.000000
v 150.000000 22.500000 -105.000000 0.000000 0.498039 1.000000
vn 0.000000 0.000000 -1.570796
v 150.000000 22.500000 -105.000000 0.000000 0.498039 1.000000
vn 1.570797 0.000000 0.000000
v 150.000000 22.500000 105.000000 0.000000 0.498039 1.000000
vn 0.000000 0.785399 0.000000
v 150.000000 22.500000 105.000000 0.000000 0.498039 1.000000
vn 0.000000 0.750411 0.000000
v 150.000000 22.500000 105.000000 0.000000 0.498039 1.000000
vn 0.000000 0.034986 0.000000
v 150.000000 22.500000 105.000000 0.000000 0.498039 1.000000
vn 0.000000 0.000000 1.570796
v 150.000000 22.500000 105.000000 0.000000 0.498039 1.000000
# 70 vertices, 0 vertices normals

f 18//18 46//46 27//27
f 17//17 40//40 47//47
f 22//22 25//25 32//32
f 21//21 19//19 26//26
f 23//23 31//31 36//36
f 23//23 36//36 42//42
f 43//43 35//35 52//52
f 39//39 44//44 51//51
f 39//39 51//51 48//48
f 38//38 68//68 53//53
f 13//13 69//69 37//37
f 13//13 37//37 34//34
f 67//67 63//63 54//54
f 49//49 55//55 62//62
f 49//49 62//62 10//10
f 9//9 28//28 50//50
f 8//8 15//15 29//29
f 14//14 33//33 30//30
f 57//57 64//64 66//66
f 57//57 66//66 59//59
f 4//4 60//60 70//70
f 4//4 70//70 12//12
f 1//1 5//5 16//16
f 1//1 16//16 7//7
f 56//56 2//2 11//11
f 56//56 11//11 65//65
f 6//6 3//3 58//58
f 6//6 58//58 61//61
f 41//41 20//20 24//24
f 41//41 24//24 45//45
# 30 faces, 0 coords texture

# End of File